<svg xmlns="http://www.w3.org/2000/svg" xmlns:xlink="http://www.w3.org/1999/xlink" width="2482.843" height="855.775" viewBox="0 0 2482.843 855.775">
  <defs>
    <radialGradient id="radial-gradient" cx="0.494" cy="-0.008" r="1.542" gradientTransform="translate(0.355 -0.016) scale(0.335 1.118)" gradientUnits="objectBoundingBox">
      <stop offset="0" stop-color="#4a289c" stop-opacity="0"/>
      <stop offset="1" stop-color="#3494b9"/>
    </radialGradient>
    <radialGradient id="radial-gradient-2" cx="0.494" cy="-0.008" r="1.542" gradientTransform="translate(0.359 -0.017) scale(0.335 1.118)" xlink:href="#radial-gradient"/>
    <radialGradient id="radial-gradient-3" cx="0.478" cy="-0.222" r="1.645" gradientTransform="translate(0.365 0.004) scale(0.314 1.048)" gradientUnits="objectBoundingBox">
      <stop offset="0" stop-color="#4a289c"/>
      <stop offset="0.963" stop-color="#00092b"/>
    </radialGradient>
    <radialGradient id="radial-gradient-4" cx="0.503" cy="-0.254" r="2.46" gradientTransform="matrix(0.187, 0.137, -0.028, 1.065, 0.476, -0.094)" xlink:href="#radial-gradient-3"/>
    <radialGradient id="radial-gradient-5" cx="0.5" cy="0.5" r="1.842" gradientTransform="translate(0.467 -0.058) scale(0.195 1.079)" xlink:href="#radial-gradient-3"/>
    <radialGradient id="radial-gradient-6" cx="-2.608" cy="-21.743" r="29.077" gradientTransform="translate(-1.355 1.248) scale(0.208 1.079)" xlink:href="#radial-gradient-3"/>
    <radialGradient id="radial-gradient-7" cx="-0.4" cy="-4.988" r="9.96" gradientTransform="translate(0.035 0.234) scale(0.303 1.079)" xlink:href="#radial-gradient-3"/>
    <radialGradient id="radial-gradient-8" cx="-4.966" cy="-12.551" r="19.547" gradientTransform="translate(-2.398 0.677) scale(0.379 1.079)" xlink:href="#radial-gradient-3"/>
    <radialGradient id="radial-gradient-9" cx="4.746" cy="-3.79" r="7.211" gradientTransform="translate(2.913 0.183) scale(0.442 1.079)" xlink:href="#radial-gradient-3"/>
    <radialGradient id="radial-gradient-10" cx="7.797" cy="-10.564" r="26.136" gradientTransform="translate(6.159 0.415) scale(0.318 1.079)" xlink:href="#radial-gradient-3"/>
    <radialGradient id="radial-gradient-11" cx="5.538" cy="-7.757" r="12.837" gradientTransform="translate(3.866 0.406) scale(0.384 1.079)" xlink:href="#radial-gradient-3"/>
    <radialGradient id="radial-gradient-12" cx="0.744" cy="-2.521" r="5.151" gradientTransform="matrix(0.386, 0.329, -0.145, 1.019, 1.348, -0.763)" xlink:href="#radial-gradient-3"/>
    <radialGradient id="radial-gradient-13" cx="3.527" cy="0.648" r="2.15" gradientTransform="matrix(-0.634, 0.965, -2.447, -0.275, 3.686, -3.385)" xlink:href="#radial-gradient-3"/>
    <radialGradient id="radial-gradient-14" cx="1.365" cy="-0.963" r="3.34" gradientTransform="matrix(0.496, 0.756, -0.566, 0.648, -3.492, -3.092)" xlink:href="#radial-gradient-3"/>
    <radialGradient id="radial-gradient-15" cx="0.839" cy="-2.287" r="4.929" gradientTransform="matrix(0.401, 0.411, -0.19, 0.957, 1.004, -1.303)" xlink:href="#radial-gradient-3"/>
    <radialGradient id="radial-gradient-16" cx="0.839" cy="-2.287" r="4.929" gradientTransform="matrix(0.401, 0.411, -0.19, 0.957, 0.643, -1.848)" xlink:href="#radial-gradient-3"/>
    <radialGradient id="radial-gradient-17" cx="0.839" cy="-2.286" r="4.928" gradientTransform="matrix(0.401, 0.411, -0.19, 0.957, -0.351, -1.297)" xlink:href="#radial-gradient-3"/>
    <radialGradient id="radial-gradient-18" cx="1.136" cy="-1.472" r="3.945" gradientTransform="matrix(0.461, 0.626, -0.375, 0.792, -3.221, -4.799)" xlink:href="#radial-gradient-3"/>
    <radialGradient id="radial-gradient-19" cx="0.992" cy="-1.871" r="4.433" gradientTransform="matrix(0.429, 0.527, -0.274, 0.878, -1.163, -1.721)" xlink:href="#radial-gradient-3"/>
    <radialGradient id="radial-gradient-20" cx="3.528" cy="0.643" r="2.152" gradientTransform="matrix(-0.627, 0.966, -2.446, -0.271, 8.696, -7.659)" xlink:href="#radial-gradient-3"/>
    <radialGradient id="radial-gradient-21" cx="0.381" cy="-2.117" r="4.393" gradientTransform="matrix(0.496, 0.05, -0.027, 1.077, 1.699, -0.262)" xlink:href="#radial-gradient-3"/>
    <radialGradient id="radial-gradient-22" cx="0.381" cy="-2.117" r="4.393" gradientTransform="matrix(0.496, 0.05, -0.027, 1.077, 1.744, -0.212)" xlink:href="#radial-gradient-3"/>
    <radialGradient id="radial-gradient-23" cx="0.381" cy="-2.117" r="4.393" gradientTransform="matrix(0.496, 0.05, -0.027, 1.077, 2.639, -0.414)" xlink:href="#radial-gradient-3"/>
    <radialGradient id="radial-gradient-24" cx="0.381" cy="-2.117" r="4.393" gradientTransform="matrix(0.496, 0.05, -0.027, 1.077, 2.741, -0.564)" xlink:href="#radial-gradient-3"/>
    <radialGradient id="radial-gradient-25" cx="0.381" cy="-2.117" r="4.393" gradientTransform="matrix(0.496, 0.05, -0.027, 1.077, 3.004, -0.494)" xlink:href="#radial-gradient-3"/>
    <radialGradient id="radial-gradient-26" cx="0.744" cy="-2.521" r="5.151" gradientTransform="matrix(0.386, 0.329, -0.145, 1.019, 1.179, -0.633)" xlink:href="#radial-gradient-3"/>
    <radialGradient id="radial-gradient-27" cx="0.381" cy="-2.117" r="4.393" gradientTransform="matrix(0.496, 0.05, -0.027, 1.077, 2.322, -0.464)" xlink:href="#radial-gradient-3"/>
    <radialGradient id="radial-gradient-28" cx="0.381" cy="-2.117" r="4.393" gradientTransform="matrix(0.496, 0.05, -0.027, 1.077, 2.946, -0.585)" xlink:href="#radial-gradient-3"/>
  </defs>
  <g id="Group_64" data-name="Group 64" transform="translate(0 0)">
    <path id="Path_385" data-name="Path 385" d="M2351.525,830.53C2116.1,510.448,1659.563,293.388,1134.907,293.388c-564.395,0-1049.957,251.182-1266.225,611.6v220.506H2351.525Z" transform="translate(131.318 -293.388)" fill="url(#radial-gradient)" style="mix-blend-mode: screen;isolation: isolate"/>
    <path id="Path_386" data-name="Path 386" d="M2093.9,782.3c-205-278.719-602.542-467.73-1059.4-467.73-491.463,0-914.277,218.725-1102.6,532.564v192.01h2162Z" transform="translate(228.524 -260.81)" fill="url(#radial-gradient-2)" style="mix-blend-mode: screen;isolation: isolate"/>
    <path id="Path_387" data-name="Path 387" d="M1901.378,737.08c-182.265-232.238-535.723-389.725-941.918-389.725C522.5,347.355,146.571,529.6-20.866,791.1V951.089H1901.378Z" transform="translate(301.164 -210.401)" fill="url(#radial-gradient-3)" style="mix-blend-mode: screen;isolation: isolate"/>
    <path id="Path_388" data-name="Path 388" d="M101.2,807.008C87.554,1037.3,513.4,1066.084,999.308,995.717s827.129,191.906,1050.977-3.2c88.642-77.267,84.372-185.614,37.739-290.7-270.949-222.583-607.574-354.46-972.332-354.46-377.93,0-725.614,141.613-1001.382,378.972A414.783,414.783,0,0,0,101.2,807.008Z" transform="translate(145.504 -210.401)" fill="#3494b9" style="mix-blend-mode: screen;isolation: isolate"/>
    <g id="Group_63" data-name="Group 63" transform="translate(1568.521 195.608) rotate(17)">
      <path id="Path_389" data-name="Path 389" d="M490.277,399.35c-1.027,7.453-16.228,11.191-33.951,8.348s-31.257-11.188-30.23-18.641,16.228-11.19,33.951-8.347S491.3,391.9,490.277,399.35ZM163.1,389.283c-16.733,6.913-28.272,18.22-25.774,25.257s18.087,7.137,34.82.225,28.272-18.221,25.774-25.258S179.832,382.37,163.1,389.283Zm56.6,12.169c-12.054,4.647-20.464,12.523-18.785,17.592s12.812,5.41,24.866.763,20.464-12.523,18.785-17.592S231.758,396.8,219.7,401.452Zm27.078-36.943c-9.113,3.094-15.594,8.708-14.475,12.539s9.411,4.431,18.524,1.338,15.593-8.707,14.475-12.538S255.9,361.416,246.783,364.509Zm292.485,43.834c-8.735-4.173-17.038-4.579-18.547-.906s4.35,10.034,13.085,14.207,17.037,4.579,18.546.906S548,412.517,539.267,408.343Zm-41.51,15.778c-10.781-1.344-19.913,1.242-20.4,5.776s7.86,9.3,18.64,10.641,19.913-1.242,20.4-5.776S508.538,425.464,497.757,424.121Z" transform="translate(-136.986 -361.545)" opacity="0.5" fill="url(#radial-gradient-4)"/>
      <path id="Path_390" data-name="Path 390" d="M179.789,414.195a63.731,63.731,0,0,1-21.107,5.087,70.108,70.108,0,0,0,15.967-4.582c16.732-6.913,28.272-18.221,25.774-25.257-1.355-3.815-6.564-5.586-13.714-5.311,9.732-1.481,17.191.126,18.853,4.807C208.06,395.974,196.521,407.282,179.789,414.195Zm57.458-16.066c5.164-.093,8.909,1.254,9.826,4.022,1.68,5.069-6.73,12.945-18.784,17.592a51.4,51.4,0,0,1-9.9,2.754,45.518,45.518,0,0,0,15.04-3.258c12.054-4.647,20.464-12.523,18.785-17.591C251.013,398.026,244.982,396.832,237.247,398.129Zm225.3-17.485c17.723,2.843,31.257,11.189,30.23,18.641-.605,4.392-6.135,7.492-14.2,8.717,10.788-.54,18.612-3.948,19.339-9.221,1.027-7.453-12.508-15.8-30.231-18.641a65.468,65.468,0,0,0-19.751-.37A70.827,70.827,0,0,1,462.55,380.644Zm84.36,27.131c-6.657-3.181-13.055-4.166-16.393-2.832a33.9,33.9,0,0,1,11.254,3.335c8.734,4.174,14.592,10.534,13.084,14.207a3.633,3.633,0,0,1-2.153,1.925c3.723.323,6.485-.464,7.293-2.429C561.5,418.309,555.644,411.948,546.909,407.775ZM505.4,423.552a39.77,39.77,0,0,0-11.776.173,44.5,44.5,0,0,1,6.637.332c10.78,1.343,19.126,6.108,18.64,10.64-.289,2.7-3.668,4.705-8.624,5.6,7.657-.2,13.382-2.547,13.763-6.108C524.526,429.659,516.18,424.895,505.4,423.552ZM260.081,362.47c4.121,0,7.091,1.129,7.728,3.313,1.117,3.831-5.364,9.445-14.475,12.538a39.6,39.6,0,0,1-5.656,1.47,34.554,34.554,0,0,0,10.8-1.974c9.113-3.094,15.594-8.708,14.476-12.539C272.069,362.265,266.745,361.261,260.081,362.47Z" transform="translate(-139.489 -361.48)" fill="url(#radial-gradient-5)" style="mix-blend-mode: screen;isolation: isolate"/>
      <g id="Group_62" data-name="Group 62" transform="translate(3.573 11.991)">
        <path id="Path_391" data-name="Path 391" d="M557.666,448.366a38.212,38.212,0,0,0-12.988-3.83c-6.721-.838-12.8-.148-16.545,1.59a38.246,38.246,0,0,0,12.987,3.83C547.842,450.794,553.922,450.1,557.666,448.366Z" transform="translate(-185.681 -382.955)" opacity="0.5" fill="url(#radial-gradient-6)"/>
        <path id="Path_392" data-name="Path 392" d="M526.742,406.476c-5.031-4.875-14.957-9.2-26.742-11.09-14.726-2.361-27.7-.178-32.26,4.9,5.031,4.876,14.958,9.2,26.741,11.09C509.207,413.74,522.183,411.556,526.742,406.476Z" transform="translate(-178.714 -377.217)" opacity="0.5" fill="url(#radial-gradient-7)"/>
        <path id="Path_393" data-name="Path 393" d="M576.064,423.232a38.13,38.13,0,0,0,8.393,5.376c6.2,2.961,12.162,4.015,15.653,3.072a38.13,38.13,0,0,0-8.393-5.376C585.521,423.343,579.554,422.289,576.064,423.232Z" transform="translate(-191.21 -380.5)" opacity="0.5" fill="url(#radial-gradient-8)"/>
        <path id="Path_394" data-name="Path 394" d="M141.025,422.323c5.915,3.232,18.393,2.146,31.587-3.3,11.576-4.783,20.663-11.668,24.339-17.789-5.914-3.232-18.393-2.146-31.587,3.3C153.788,409.317,144.7,416.2,141.025,422.323Z" transform="translate(-141.025 -377.791)" opacity="0.5" fill="url(#radial-gradient-9)"/>
        <path id="Path_395" data-name="Path 395" d="M261.884,376.941a36.324,36.324,0,0,0-9.585,4.824,33.073,33.073,0,0,0,11.834-1.944A36.276,36.276,0,0,0,273.717,375,33.106,33.106,0,0,0,261.884,376.941Z" transform="translate(-153.861 -374.971)" opacity="0.5" fill="url(#radial-gradient-10)"/>
        <path id="Path_396" data-name="Path 396" d="M214.488,428.622c4.7,1.223,12.257.346,20.238-2.731,6.944-2.676,12.663-6.424,15.956-10.089-4.7-1.223-12.257-.347-20.239,2.731C223.5,421.21,217.782,424.957,214.488,428.622Z" transform="translate(-149.5 -379.62)" opacity="0.5" fill="url(#radial-gradient-11)"/>
      </g>
      <ellipse id="Ellipse_152" data-name="Ellipse 152" cx="12.912" cy="5.279" rx="12.912" ry="5.279" transform="translate(24.931 64.403) rotate(-19.229)" opacity="0.25" fill="url(#radial-gradient-12)"/>
      <ellipse id="Ellipse_153" data-name="Ellipse 153" cx="5.31" cy="12.836" rx="5.31" ry="12.836" transform="translate(277.436 10.497) rotate(-81.292)" opacity="0.25" fill="url(#radial-gradient-13)"/>
      <path id="Path_397" data-name="Path 397" d="M643.332,436.367c-1.417,2.508-7.465,1.319-13.508-2.656s-9.794-9.23-8.377-11.737,7.466-1.319,13.509,2.656S644.75,433.859,643.332,436.367Z" transform="translate(-192.837 -368.251)" opacity="0.25" fill="url(#radial-gradient-14)"/>
      <path id="Path_398" data-name="Path 398" d="M497.673,374.721c-.158,1.235-2.7,1.877-5.675,1.434s-5.261-1.8-5.1-3.038,2.7-1.877,5.675-1.435S497.831,373.486,497.673,374.721Z" transform="translate(-177.349 -362.585)" opacity="0.25" fill="url(#radial-gradient-15)"/>
      <path id="Path_399" data-name="Path 399" d="M530.426,422.165c-.157,1.235-2.7,1.877-5.675,1.434s-5.261-1.8-5.1-3.038,2.7-1.877,5.675-1.435S530.584,420.93,530.426,422.165Z" transform="translate(-181.128 -368.058)" opacity="0.25" fill="url(#radial-gradient-16)"/>
      <path id="Path_400" data-name="Path 400" d="M562.263,390.694c-.158,1.235-2.7,1.877-5.675,1.434s-5.261-1.8-5.1-3.039,2.7-1.877,5.675-1.434S562.42,389.46,562.263,390.694Z" transform="translate(-184.8 -364.427)" opacity="0.25" fill="url(#radial-gradient-17)"/>
      <path id="Path_401" data-name="Path 401" d="M589.143,439.5c-.428,1.158-3.038,1.124-5.828-.076s-4.706-3.112-4.279-4.27,3.038-1.124,5.829.076S589.572,438.343,589.143,439.5Z" transform="translate(-187.973 -369.825)" opacity="0.25" fill="url(#radial-gradient-18)"/>
      <path id="Path_402" data-name="Path 402" d="M581.246,401.65c-.485,1.93-4.65,2.395-9.3,1.036s-8.033-4.026-7.549-5.957,4.65-2.4,9.3-1.037S581.731,399.717,581.246,401.65Z" transform="translate(-186.285 -365.281)" opacity="0.25" fill="url(#radial-gradient-19)"/>
      <ellipse id="Ellipse_154" data-name="Ellipse 154" cx="3.615" cy="8.748" rx="3.615" ry="8.748" transform="translate(290.088 49.921) rotate(-79.889)" opacity="0.25" fill="url(#radial-gradient-20)"/>
      <path id="Path_403" data-name="Path 403" d="M266.214,389.3c.415,1.746-2.659,4.1-6.867,5.268s-7.954.691-8.369-1.054,2.659-4.1,6.867-5.268S265.8,387.551,266.214,389.3Z" transform="translate(-150.131 -364.437)" opacity="0.25" fill="url(#radial-gradient-21)"/>
      <path id="Path_404" data-name="Path 404" d="M261.309,426.77c.415,1.746-2.659,4.1-6.866,5.267s-7.955.692-8.37-1.055,2.659-4.1,6.867-5.267S260.895,425.025,261.309,426.77Z" transform="translate(-149.566 -368.76)" opacity="0.25" fill="url(#radial-gradient-22)"/>
      <path id="Path_405" data-name="Path 405" d="M271.842,417.7c.258,1.087-1.657,2.557-4.277,3.281s-4.955.431-5.214-.657,1.657-2.557,4.278-3.281S271.584,416.615,271.842,417.7Z" transform="translate(-151.445 -367.788)" opacity="0.25" fill="url(#radial-gradient-23)"/>
      <path id="Path_406" data-name="Path 406" d="M242.626,368.307c.258,1.087-1.657,2.557-4.278,3.281s-4.955.431-5.213-.657,1.657-2.557,4.278-3.281S242.368,367.218,242.626,368.307Z" transform="translate(-148.075 -362.09)" opacity="0.25" fill="url(#radial-gradient-24)"/>
      <path id="Path_407" data-name="Path 407" d="M205.121,417.7c.258,1.087-1.656,2.557-4.277,3.281s-4.955.431-5.213-.657,1.657-2.557,4.277-3.281S204.863,416.615,205.121,417.7Z" transform="translate(-143.748 -367.788)" opacity="0.25" fill="url(#radial-gradient-25)"/>
      <ellipse id="Ellipse_155" data-name="Ellipse 155" cx="12.912" cy="5.279" rx="12.912" ry="5.279" transform="matrix(0.944, -0.329, 0.329, 0.944, 126.396, 23.709)" opacity="0.25" fill="url(#radial-gradient-26)"/>
      <path id="Path_408" data-name="Path 408" d="M319.817,371.7c.258,1.087-1.657,2.557-4.277,3.281s-4.955.431-5.213-.657,1.656-2.557,4.277-3.281S319.559,370.614,319.817,371.7Z" transform="translate(-156.979 -362.481)" opacity="0.25" fill="url(#radial-gradient-27)"/>
      <path id="Path_409" data-name="Path 409" d="M207.193,377.918c.258,1.087-1.656,2.557-4.277,3.281s-4.955.431-5.213-.656,1.657-2.557,4.277-3.282S206.935,376.83,207.193,377.918Z" transform="translate(-143.987 -363.198)" opacity="0.25" fill="url(#radial-gradient-28)"/>
    </g>
    <g id="Group_127" data-name="Group 127" transform="translate(439.434 409.788) rotate(-30)">
      <path id="Path_389-2" data-name="Path 389" d="M490.277,399.35c-1.027,7.453-16.228,11.191-33.951,8.348s-31.257-11.188-30.23-18.641,16.228-11.19,33.951-8.347S491.3,391.9,490.277,399.35ZM163.1,389.283c-16.733,6.913-28.272,18.22-25.774,25.257s18.087,7.137,34.82.225,28.272-18.221,25.774-25.258S179.832,382.37,163.1,389.283Zm56.6,12.169c-12.054,4.647-20.464,12.523-18.785,17.592s12.812,5.41,24.866.763,20.464-12.523,18.785-17.592S231.758,396.8,219.7,401.452Zm27.078-36.943c-9.113,3.094-15.594,8.708-14.475,12.539s9.411,4.431,18.524,1.338,15.593-8.707,14.475-12.538S255.9,361.416,246.783,364.509Zm292.485,43.834c-8.735-4.173-17.038-4.579-18.547-.906s4.35,10.034,13.085,14.207,17.037,4.579,18.546.906S548,412.517,539.267,408.343Zm-41.51,15.778c-10.781-1.344-19.913,1.242-20.4,5.776s7.86,9.3,18.64,10.641,19.913-1.242,20.4-5.776S508.538,425.464,497.757,424.121Z" transform="translate(-136.986 -361.545)" opacity="0.5" fill="url(#radial-gradient-4)"/>
      <path id="Path_390-2" data-name="Path 390" d="M179.789,414.195a63.731,63.731,0,0,1-21.107,5.087,70.108,70.108,0,0,0,15.967-4.582c16.732-6.913,28.272-18.221,25.774-25.257-1.355-3.815-6.564-5.586-13.714-5.311,9.732-1.481,17.191.126,18.853,4.807C208.06,395.974,196.521,407.282,179.789,414.195Zm57.458-16.066c5.164-.093,8.909,1.254,9.826,4.022,1.68,5.069-6.73,12.945-18.784,17.592a51.4,51.4,0,0,1-9.9,2.754,45.518,45.518,0,0,0,15.04-3.258c12.054-4.647,20.464-12.523,18.785-17.591C251.013,398.026,244.982,396.832,237.247,398.129Zm225.3-17.485c17.723,2.843,31.257,11.189,30.23,18.641-.605,4.392-6.135,7.492-14.2,8.717,10.788-.54,18.612-3.948,19.339-9.221,1.027-7.453-12.508-15.8-30.231-18.641a65.468,65.468,0,0,0-19.751-.37A70.827,70.827,0,0,1,462.55,380.644Zm84.36,27.131c-6.657-3.181-13.055-4.166-16.393-2.832a33.9,33.9,0,0,1,11.254,3.335c8.734,4.174,14.592,10.534,13.084,14.207a3.633,3.633,0,0,1-2.153,1.925c3.723.323,6.485-.464,7.293-2.429C561.5,418.309,555.644,411.948,546.909,407.775ZM505.4,423.552a39.77,39.77,0,0,0-11.776.173,44.5,44.5,0,0,1,6.637.332c10.78,1.343,19.126,6.108,18.64,10.64-.289,2.7-3.668,4.705-8.624,5.6,7.657-.2,13.382-2.547,13.763-6.108C524.526,429.659,516.18,424.895,505.4,423.552ZM260.081,362.47c4.121,0,7.091,1.129,7.728,3.313,1.117,3.831-5.364,9.445-14.475,12.538a39.6,39.6,0,0,1-5.656,1.47,34.554,34.554,0,0,0,10.8-1.974c9.113-3.094,15.594-8.708,14.476-12.539C272.069,362.265,266.745,361.261,260.081,362.47Z" transform="translate(-139.489 -361.48)" fill="url(#radial-gradient-5)" style="mix-blend-mode: screen;isolation: isolate"/>
      <g id="Group_62-2" data-name="Group 62" transform="translate(3.573 11.991)">
        <path id="Path_391-2" data-name="Path 391" d="M557.666,448.366a38.212,38.212,0,0,0-12.988-3.83c-6.721-.838-12.8-.148-16.545,1.59a38.246,38.246,0,0,0,12.987,3.83C547.842,450.794,553.922,450.1,557.666,448.366Z" transform="translate(-185.681 -382.955)" opacity="0.5" fill="url(#radial-gradient-6)"/>
        <path id="Path_392-2" data-name="Path 392" d="M526.742,406.476c-5.031-4.875-14.957-9.2-26.742-11.09-14.726-2.361-27.7-.178-32.26,4.9,5.031,4.876,14.958,9.2,26.741,11.09C509.207,413.74,522.183,411.556,526.742,406.476Z" transform="translate(-178.714 -377.217)" opacity="0.5" fill="url(#radial-gradient-7)"/>
        <path id="Path_393-2" data-name="Path 393" d="M576.064,423.232a38.13,38.13,0,0,0,8.393,5.376c6.2,2.961,12.162,4.015,15.653,3.072a38.13,38.13,0,0,0-8.393-5.376C585.521,423.343,579.554,422.289,576.064,423.232Z" transform="translate(-191.21 -380.5)" opacity="0.5" fill="url(#radial-gradient-8)"/>
        <path id="Path_394-2" data-name="Path 394" d="M141.025,422.323c5.915,3.232,18.393,2.146,31.587-3.3,11.576-4.783,20.663-11.668,24.339-17.789-5.914-3.232-18.393-2.146-31.587,3.3C153.788,409.317,144.7,416.2,141.025,422.323Z" transform="translate(-141.025 -377.791)" opacity="0.5" fill="url(#radial-gradient-9)"/>
        <path id="Path_395-2" data-name="Path 395" d="M261.884,376.941a36.324,36.324,0,0,0-9.585,4.824,33.073,33.073,0,0,0,11.834-1.944A36.276,36.276,0,0,0,273.717,375,33.106,33.106,0,0,0,261.884,376.941Z" transform="translate(-153.861 -374.971)" opacity="0.5" fill="url(#radial-gradient-10)"/>
        <path id="Path_396-2" data-name="Path 396" d="M214.488,428.622c4.7,1.223,12.257.346,20.238-2.731,6.944-2.676,12.663-6.424,15.956-10.089-4.7-1.223-12.257-.347-20.239,2.731C223.5,421.21,217.782,424.957,214.488,428.622Z" transform="translate(-149.5 -379.62)" opacity="0.5" fill="url(#radial-gradient-11)"/>
      </g>
      <ellipse id="Ellipse_152-2" data-name="Ellipse 152" cx="12.912" cy="5.279" rx="12.912" ry="5.279" transform="translate(24.931 64.403) rotate(-19.229)" opacity="0.25" fill="url(#radial-gradient-12)"/>
      <ellipse id="Ellipse_153-2" data-name="Ellipse 153" cx="5.31" cy="12.836" rx="5.31" ry="12.836" transform="translate(277.436 10.497) rotate(-81.292)" opacity="0.25" fill="url(#radial-gradient-13)"/>
      <path id="Path_397-2" data-name="Path 397" d="M643.332,436.367c-1.417,2.508-7.465,1.319-13.508-2.656s-9.794-9.23-8.377-11.737,7.466-1.319,13.509,2.656S644.75,433.859,643.332,436.367Z" transform="translate(-192.837 -368.251)" opacity="0.25" fill="url(#radial-gradient-14)"/>
      <path id="Path_398-2" data-name="Path 398" d="M497.673,374.721c-.158,1.235-2.7,1.877-5.675,1.434s-5.261-1.8-5.1-3.038,2.7-1.877,5.675-1.435S497.831,373.486,497.673,374.721Z" transform="translate(-177.349 -362.585)" opacity="0.25" fill="url(#radial-gradient-15)"/>
      <path id="Path_399-2" data-name="Path 399" d="M530.426,422.165c-.157,1.235-2.7,1.877-5.675,1.434s-5.261-1.8-5.1-3.038,2.7-1.877,5.675-1.435S530.584,420.93,530.426,422.165Z" transform="translate(-181.128 -368.058)" opacity="0.25" fill="url(#radial-gradient-16)"/>
      <path id="Path_400-2" data-name="Path 400" d="M562.263,390.694c-.158,1.235-2.7,1.877-5.675,1.434s-5.261-1.8-5.1-3.039,2.7-1.877,5.675-1.434S562.42,389.46,562.263,390.694Z" transform="translate(-184.8 -364.427)" opacity="0.25" fill="url(#radial-gradient-17)"/>
      <path id="Path_401-2" data-name="Path 401" d="M589.143,439.5c-.428,1.158-3.038,1.124-5.828-.076s-4.706-3.112-4.279-4.27,3.038-1.124,5.829.076S589.572,438.343,589.143,439.5Z" transform="translate(-187.973 -369.825)" opacity="0.25" fill="url(#radial-gradient-18)"/>
      <path id="Path_402-2" data-name="Path 402" d="M581.246,401.65c-.485,1.93-4.65,2.395-9.3,1.036s-8.033-4.026-7.549-5.957,4.65-2.4,9.3-1.037S581.731,399.717,581.246,401.65Z" transform="translate(-186.285 -365.281)" opacity="0.25" fill="url(#radial-gradient-19)"/>
      <ellipse id="Ellipse_154-2" data-name="Ellipse 154" cx="3.615" cy="8.748" rx="3.615" ry="8.748" transform="translate(290.088 49.921) rotate(-79.889)" opacity="0.25" fill="url(#radial-gradient-20)"/>
      <path id="Path_403-2" data-name="Path 403" d="M266.214,389.3c.415,1.746-2.659,4.1-6.867,5.268s-7.954.691-8.369-1.054,2.659-4.1,6.867-5.268S265.8,387.551,266.214,389.3Z" transform="translate(-150.131 -364.437)" opacity="0.25" fill="url(#radial-gradient-21)"/>
      <path id="Path_404-2" data-name="Path 404" d="M261.309,426.77c.415,1.746-2.659,4.1-6.866,5.267s-7.955.692-8.37-1.055,2.659-4.1,6.867-5.267S260.895,425.025,261.309,426.77Z" transform="translate(-149.566 -368.76)" opacity="0.25" fill="url(#radial-gradient-22)"/>
      <path id="Path_405-2" data-name="Path 405" d="M271.842,417.7c.258,1.087-1.657,2.557-4.277,3.281s-4.955.431-5.214-.657,1.657-2.557,4.278-3.281S271.584,416.615,271.842,417.7Z" transform="translate(-151.445 -367.788)" opacity="0.25" fill="url(#radial-gradient-23)"/>
      <path id="Path_406-2" data-name="Path 406" d="M242.626,368.307c.258,1.087-1.657,2.557-4.278,3.281s-4.955.431-5.213-.657,1.657-2.557,4.278-3.281S242.368,367.218,242.626,368.307Z" transform="translate(-148.075 -362.09)" opacity="0.25" fill="url(#radial-gradient-24)"/>
      <path id="Path_407-2" data-name="Path 407" d="M205.121,417.7c.258,1.087-1.656,2.557-4.277,3.281s-4.955.431-5.213-.657,1.657-2.557,4.277-3.281S204.863,416.615,205.121,417.7Z" transform="translate(-143.748 -367.788)" opacity="0.25" fill="url(#radial-gradient-25)"/>
      <ellipse id="Ellipse_155-2" data-name="Ellipse 155" cx="12.912" cy="5.279" rx="12.912" ry="5.279" transform="matrix(0.944, -0.329, 0.329, 0.944, 126.396, 23.709)" opacity="0.25" fill="url(#radial-gradient-26)"/>
      <path id="Path_408-2" data-name="Path 408" d="M319.817,371.7c.258,1.087-1.657,2.557-4.277,3.281s-4.955.431-5.213-.657,1.656-2.557,4.277-3.281S319.559,370.614,319.817,371.7Z" transform="translate(-156.979 -362.481)" opacity="0.25" fill="url(#radial-gradient-27)"/>
      <path id="Path_409-2" data-name="Path 409" d="M207.193,377.918c.258,1.087-1.656,2.557-4.277,3.281s-4.955.431-5.213-.656,1.657-2.557,4.277-3.282S206.935,376.83,207.193,377.918Z" transform="translate(-143.987 -363.198)" opacity="0.25" fill="url(#radial-gradient-28)"/>
    </g>
  </g>
</svg>